<?xml version="1.0" encoding="utf-8"?>
<svg viewBox="-0.104 0.045 43.06 42.116" xmlns="http://www.w3.org/2000/svg">
  <defs>
    <linearGradient id="gradient-3" gradientUnits="userSpaceOnUse" x1="21.426" y1="0.045" x2="21.426" y2="42.161" gradientTransform="matrix(-0.707916, 0.706297, -0.689999, -0.667587, 51.154853, 20.057992)">
      <stop offset="0" style="stop-color: rgba(51, 51, 51, 1)"/>
      <stop offset="1" style="stop-color: rgb(246, 132, 6);"/>
    </linearGradient>
  </defs>
  <rect width="43.06" height="42.116" x="-0.104" y="0.045" style="fill: url(#gradient-3);"/>
  <path d="M 20.886 17.225 L 8.146 17.225 C 7.813 17.225 7.519 17.105 7.266 16.865 C 7.019 16.625 6.896 16.338 6.896 16.005 C 6.896 15.671 7.019 15.381 7.266 15.135 C 7.519 14.888 7.813 14.765 8.146 14.765 L 20.886 14.765 C 21.079 14.765 21.176 14.668 21.176 14.475 L 21.176 8.475 C 21.176 8.068 21.313 7.728 21.586 7.455 C 21.859 7.181 22.199 7.045 22.606 7.045 C 23.013 7.045 23.353 7.181 23.626 7.455 C 23.899 7.728 24.036 8.068 24.036 8.475 L 24.036 14.475 C 24.036 14.668 24.143 14.765 24.356 14.765 L 34.706 14.765 C 35.039 14.765 35.333 14.888 35.586 15.135 C 35.833 15.381 35.956 15.671 35.956 16.005 C 35.956 16.338 35.833 16.625 35.586 16.865 C 35.333 17.105 35.039 17.225 34.706 17.225 L 24.356 17.225 C 24.143 17.225 24.036 17.318 24.036 17.505 C 24.009 22.338 23.056 26.165 21.176 28.985 C 19.296 31.805 16.356 33.845 12.356 35.105 C 12.023 35.205 11.703 35.171 11.396 35.005 C 11.083 34.838 10.869 34.588 10.756 34.255 C 10.636 33.921 10.659 33.595 10.826 33.275 C 10.993 32.948 11.243 32.738 11.576 32.645 C 14.976 31.458 17.419 29.705 18.906 27.385 C 20.393 25.058 21.149 21.765 21.176 17.505 C 21.176 17.318 21.079 17.225 20.886 17.225 Z" style="white-space: pre; fill: rgb(255, 255, 255);"/>
</svg>